<svg xmlns="http://www.w3.org/2000/svg" aria-hidden="true" style="position:absolute;width:0;height:0;overflow:hidden"><defs><symbol id="icon-facebook" viewBox="0 0 17 32"><path fill="#fff" d="M11.642 32V17.6h4.663l.762-6.4h-5.425V8.083c0-1.648.045-3.283 2.501-3.283h2.488V.224c0-.069-2.137-.224-4.299-.224-4.515 0-7.343 2.651-7.343 7.52v3.68H0v6.4h4.989V32h6.652z" style="fill:var(--color1, #fff)"/></symbol><symbol id="icon-google" viewBox="0 0 32 32"><path fill="#fff" d="M31.715 12.806H16.339c0 1.599 0 4.797-.01 6.396h8.91c-.341 1.599-1.552 3.838-3.262 4.965l-.002.003c-.001.003-.002.006-.004.005-2.274 1.502-5.275 1.842-7.504 1.395-3.493-.694-6.257-3.227-7.379-6.444.006-.005.011-.05.016-.053-.702-1.996-.702-4.668 0-6.267h-.002c.905-2.939 3.753-5.621 7.25-6.355 2.813-.596 5.988.05 8.322 2.234.31-.304 4.297-4.196 4.596-4.513C19.294-3.051 6.524-.51 1.745 8.817h-.002s.002 0-.008.018c-2.364 4.581-2.266 9.98.016 14.342a.112.112 0 0 0-.016.013 16.286 16.286 0 0 0 10.367 8.264c4.818 1.263 10.949.4 15.056-3.315l.005.005c3.48-3.134 5.646-8.474 4.552-15.338z" style="fill:var(--color1, #fff)"/></symbol><symbol id="icon-linkedin" viewBox="0 0 32 32"><path fill="#fff" d="M3.001 6a3 3 0 0 0 0-6 3 3 0 1 0 0 6zM32 32V18.483C32 12.764 28.788 10 24.435 10c-4.351 0-6.282 3.526-6.282 3.526v-2.341h-6.154V32h6.154V20.793c0-3.002 1.509-4.789 4.052-4.789 2.337 0 3.64 1.715 3.64 4.789V32h6.154zM6 32V12H0v20h6z" style="fill:var(--color1, #fff)"/></symbol><symbol id="icon-logo" viewBox="0 0 16 32"><path d="M16.008 10.001v-5a1 1 0 0 0-1.001-1h-1.001v-3a1 1 0 0 0-1-1L12.741 0c-1.415-.006-3.475-.016-5.867 1.417C5.44.99 4.387.995 3.331 1l-.33.001a1 1 0 0 0-1 1v2h-1a1 1 0 0 0-1 1v5c0 4.072 3.061 7.444 7.003 7.937V31a1 1 0 0 0 2.001 0v-3.5h1.501a5.508 5.508 0 0 0 5.503-5.5v-1.5a1 1 0 0 0-1.001-1h-2.501a5.48 5.48 0 0 0-3.502 1.26v-2.823A7.995 7.995 0 0 0 16.008 10zm-4.002-7.999v2.202c-.185.038-.368.081-.551.128a10.016 10.016 0 0 0-2.197-1.845 8.003 8.003 0 0 1 2.748-.485zm-8.004 1c1.988 0 3.918.725 5.419 2.111-.495.256-.97.553-1.42.891a9.966 9.966 0 0 0-3.999-1.802V3.001zm-2.001 6.999v-4c4.413 0 8.004 3.589 8.004 8A2.003 2.003 0 0 1 7.951 16c-3.515-.087-5.95-2.878-5.95-5.999zm12.005 0c0 1.78-.787 3.387-2.032 4.489.02-.16.031-.323.031-.489A9.957 9.957 0 0 0 9.5 7.39a7.989 7.989 0 0 1 4.506-1.389v4zm-1.5 11.5h1.501v.5c0 1.93-1.571 3.5-3.502 3.5H9.004v-.5c0-1.93 1.571-3.5 3.502-3.5z" /></symbol><symbol id="icon-menu" viewBox="0 0 48 32"><path d="M0 0v5.333h48.025V0H0zm0 18.667h48.025v-5.333H0v5.333zM0 32h48.025v-5.333H0V32z" /></symbol><symbol id="icon-play" viewBox="0 0 25 32"><path d="M0 0v32l25.156-16L0 0z"/></symbol><symbol id="icon-search" viewBox="0 0 32 32"><path d="M20.667 18.667h-1.053l-.373-.36a8.626 8.626 0 0 0 2.093-5.64C21.334 7.88 17.454 4 12.667 4S4 7.88 4 12.667a8.667 8.667 0 0 0 8.667 8.667 8.63 8.63 0 0 0 5.64-2.093l.36.373v1.053l6.667 6.653 1.987-1.987-6.653-6.667zm-8 0c-3.32 0-6-2.68-6-6s2.68-6 6-6 6 2.68 6 6-2.68 6-6 6z"/></symbol><symbol id="icon-totopbtn" viewBox="0 0 57 32"><path d="M27.788.319a3.955 3.955 0 0 1 4.353.84l23.772 23.772a3.955 3.955 0 1 1-5.593 5.593L28.695 8.899 6.752 30.842a3.955 3.955 0 1 1-5.593-5.593L24.931 1.477A3.941 3.941 0 0 1 27.788.319z"/></symbol><symbol id="icon-navigation" viewBox="0 0 20 32"><path d="M11.513 16.254 1.471 26.294a3.347 3.347 0 1 0 4.734 4.733l12.459-12.459a3.344 3.344 0 0 0-.527-5.164l-.013-.008L5.707.979A3.348 3.348 0 0 0 .973 5.713l10.54 10.539z"/></symbol></defs></svg>