<svg width="1392.114746" height="1702.061035" viewBox="0 0 1392.11 1702.06" fill="none" xmlns="http://www.w3.org/2000/svg" xmlns:xlink="http://www.w3.org/1999/xlink">
	<desc>
			Created with Pixso.
	</desc>
	<defs/>
	<path id="Shape" d="M465.284 554.767C438.568 529.062 410.781 505.326 383.251 481.21C355.722 457.094 328.119 433.044 301.868 406.568C284.823 389.382 264.796 370.025 253.236 345.485C228.61 293.187 306.253 300.953 326.365 299.809C377.529 296.887 436.214 298.221 484.172 270.987C512.802 254.729 524.218 227.462 518.069 187.722C516.087 174.798 510.22 159.926 515.19 147.335C520.496 133.888 532.705 126.129 542.838 120.925C579.796 101.967 622.289 99.7705 661.393 97.3911C703.559 94.7761 746.121 95.541 787.99 95.3384C805.743 95.2534 824.284 86.8398 841.19 80.002C863.353 71.0396 885.254 60.9722 907.234 51.2383C955.588 29.8748 1005.41 7.37378 1056.57 1.94775C1088.61 -1.45166 1123.63 3.14429 1148.52 32.7119C1161.01 47.5581 1167.55 69.6274 1174.78 89.2327C1183.52 112.917 1191.92 136.83 1201.23 160.142C1231.22 235.222 1274.04 308.589 1343.54 312.276C1354.06 312.831 1364.38 311.021 1374.85 310.681C1381.51 310.471 1387.44 312.596 1389.92 321.794C1396.15 344.864 1376.57 381.282 1368.55 399.587C1350.97 439.653 1331.15 477.922 1312.59 517.185C1300.3 543.15 1279.04 578.634 1278.82 610.183C1278.62 638.293 1306.96 658.61 1322.39 672.457C1336.85 685.419 1363.05 703.561 1364.63 729.932C1365.4 742.718 1359.01 753.315 1352.33 761.539C1340.64 775.921 1327.16 786.066 1316.63 802.475C1299.38 829.395 1284.96 866.435 1287.3 902.71C1288.93 927.846 1299.8 944.306 1313.63 960.042C1319.44 966.657 1324.16 971.337 1324.46 982.078C1324.96 999.134 1319.89 1017.18 1315.72 1033C1300.8 1089.59 1279.6 1144.31 1256.02 1195.41C1244.24 1220.94 1231.51 1246.4 1215.89 1268.18C1205.66 1282.48 1191.86 1299.51 1176.25 1299.49C1158.18 1299.49 1139.06 1290.88 1121.49 1284.45C1088.69 1272.43 1056.28 1258.53 1024 1244.27C949.342 1211.29 875.39 1175.63 802.141 1137.3C750.546 1110.25 697.856 1083.17 649.348 1047.21C639.887 1040.15 630.958 1031.92 622.681 1022.63C613.836 1012.87 602.861 1008.5 591.732 1005.25C522.662 985.04 446.991 1000.55 377.633 1010.28C360.028 1012.74 342.424 1015.22 324.769 1016.95C309.593 1018.43 291.423 1022.69 276.672 1016.29C247.607 1003.71 273.016 957.328 283.758 938.429C321.578 871.887 370.374 815.588 415.602 758.113C437.106 730.742 458.774 703.443 479.108 674.522C489.697 659.486 510.577 635.037 510.507 615.387C510.428 592.97 478.796 567.763 465.284 554.767Z" stroke="#5BE7C3" stroke-width="2.000000"/>
	<path id="Shape" d="M474.727 553.857C450.431 530.105 425.372 507.673 400.69 484.593C377.351 462.769 353.963 440.696 332.35 415.911C319.171 400.797 302.635 382.723 296.393 360.369C282.852 311.917 355.699 319.269 373.682 318.001C418.391 314.864 469.079 314.146 510.441 288.635C536.269 272.705 546.879 246.287 541.371 209.609C539.467 196.92 536.036 186.086 540.379 173.462C545.402 158.851 556.954 149.742 567.545 143.312C600.721 123.167 639.936 118.887 675.898 115.326C713.051 111.647 751.76 109.053 787.717 111.745C802.096 112.817 818.646 106.733 832.877 102.068C854.772 94.8799 876.445 86.5879 898.232 78.8774C942.509 63.1948 987.937 48.0874 1034 46.3691C1067.25 45.1277 1101.93 51.8579 1129.59 77.8711C1157.63 104.25 1170.07 145.142 1185.62 184.015C1212.48 251.22 1248.75 332.932 1310.87 347.131C1320.29 349.287 1329.35 348.117 1338.76 348.647C1343.6 348.915 1349.11 349.764 1351.56 356.057C1357.93 372.393 1340.47 402.261 1334.6 414.774C1318.36 449.354 1300.11 482.241 1283.1 516.154C1269.59 543.082 1252.46 573.002 1247.24 604.923C1240.9 643.658 1282.33 671.22 1296.91 698.494C1322.17 745.79 1274.31 772.737 1250.71 795.287C1223.61 821.176 1201.25 868.406 1225.54 908.461C1234.83 923.778 1246.26 932.907 1250.41 952.895C1256.9 984.155 1251.99 1019.88 1246.73 1050.78C1238.79 1097.23 1226.24 1143.18 1209.17 1185.16C1196.95 1215.22 1176.66 1262.35 1146.96 1258.82C1126.96 1256.46 1106.63 1247.84 1087.16 1240.22C1058.01 1228.82 1029.22 1215.82 1000.58 1202.32C934.487 1171.25 869.117 1136.98 805.031 1099.29C761.304 1073.56 639.331 968.434 630.153 964.683C602.789 953.509 571.676 955.476 543.463 957.208C505.934 959.508 468.593 965.467 431.282 970.989C413.522 973.602 395.672 976.797 377.817 978.085C365.109 979 348.42 979.784 337.289 970.041C315.562 951.033 339.768 907.541 349.779 889.14C380.445 832.729 419.239 783.878 455.613 733.93C473.462 709.407 491.585 684.922 507.788 658.432C514.323 647.736 530.705 626.257 523.541 611.607C511.948 587.888 491.61 570.356 474.727 553.857Z" stroke="#5ACEF2" stroke-width="2.000000"/>
	<path id="Shape" d="M426.512 477.034C407.584 457.131 388.537 436.686 372.212 412.979C363.72 400.652 353.115 385.063 351.479 367.88C347.107 321.911 412.765 328.127 432.416 326.382C470.411 322.996 513.333 320.428 547.803 296.969C568.863 282.629 579.234 259.092 575.297 228.157C573.552 214.431 570.835 202.771 575.297 189.293C579.819 175.639 589.238 166.005 598.776 158.782C626.187 138.01 660.25 131.37 691.11 126.422C727.313 120.659 763.788 118.409 800.24 119.689C832.167 120.794 863.94 108.369 895.113 100.179C936.409 89.3354 978.454 79.8647 1020.71 81.2961C1054.09 82.4333 1087.72 91.3682 1116.25 115.114C1145.25 139.298 1162.68 175.495 1178.39 214.555C1202.15 273.603 1231.75 352.729 1283.87 375.155C1291.45 378.423 1298.52 378.782 1306.34 379.351C1310.13 379.625 1315.04 379.71 1316.92 384.933C1321.45 397.508 1304.7 421.888 1300.02 430.385C1285.1 457.51 1268.93 483.413 1253.63 510.178C1239.35 535.166 1223.8 561.206 1214.93 590.488C1200.82 637.124 1245.94 664.393 1244.68 708.832C1243.89 736.421 1223.86 756.206 1207.99 769.893C1188.46 786.723 1160.34 797.789 1150.56 828.502C1143.28 851.378 1154.7 864.693 1163.5 882.053C1178.42 911.465 1179.43 951.336 1177.88 985.383C1175.79 1031.39 1167.61 1078.08 1153.7 1120.37C1147.39 1139.54 1139.67 1159.48 1128.3 1174.37C1117.64 1188.32 1107.56 1191.9 1093.32 1189.04C1049.73 1180.28 1005.73 1155.87 963.928 1134.07C911.413 1106.67 859.622 1076.42 809.377 1042.38C775.116 1019.17 740.081 994.618 710.009 962.552C702.171 954.192 694.144 945.107 688.413 934.081C684.081 925.792 682.241 918.949 674.939 914.217C653.294 900.197 623.187 903.864 599.996 905.321C562.913 907.642 526.01 913.818 489.155 919.381C467.649 922.649 427.136 932.93 409.964 908.269C395.141 886.975 413.027 850.666 422.164 831.907C445.276 784.468 475.007 742.833 502.59 699.962C515.232 680.314 528.369 660.517 538.81 638.673C541.477 633.104 545.75 625.725 546.484 618.959C547.307 611.208 543.465 605.292 539.578 599.443C507.919 551.977 464.224 516.676 426.512 477.034Z" stroke="#5BE7C3" stroke-width="2.000000"/>
	<path id="Shape" d="M446.397 494.772C432.316 477.164 418.095 458.691 407.366 437.21C401.594 425.658 395.466 411.117 397.057 396.759C401.624 355.55 455.625 359.272 477.441 356.858C509.858 353.313 547.1 349.741 575.763 327.521C594.54 312.967 601.581 291.472 598.076 263.751C594.312 234.014 602.727 212.428 621.875 195.84C645.883 175.059 676.188 166.588 704.064 160.57C737.648 153.354 771.658 150.156 805.679 151.013C838.765 151.851 870.821 144.538 903.689 139.782C947.267 133.483 992.244 130.376 1035.33 143.288C1072.85 154.532 1106.73 179.311 1132.13 217.629C1158.66 257.622 1171.8 308.008 1193.34 352.253C1206.78 379.85 1225.52 416.357 1250.62 427.084C1259 430.662 1274.26 425.835 1267.57 443.437C1263.75 453.504 1256.59 462.335 1250.94 470.563C1241.81 483.862 1232.37 496.793 1223.09 509.909C1203.29 537.866 1182.1 566.418 1167.26 599.523C1148.57 641.204 1176.35 673.281 1172.97 715.544C1171.15 738.288 1159.16 756.439 1146.48 770.699C1138.27 779.936 1129.29 787.936 1120.12 795.399C1110.55 803.196 1099.22 809.135 1090.87 819.215C1078.97 833.56 1084.14 850.541 1086.37 869.085C1090.29 901.675 1091.16 934.779 1088.94 967.648C1086.22 1007.94 1079.85 1049.37 1066.42 1085.98C1061.2 1100.24 1054.59 1115.35 1044.77 1124.9C1034.94 1134.46 1024.78 1133.81 1013.53 1130.93C980.146 1122.43 946.831 1102.64 915.162 1083.88C875.526 1060.41 836.668 1034.17 799.56 1004.32C773.946 983.72 748.247 961.46 726.817 933.522C720.585 925.392 714.655 916.686 709.86 906.965C706.568 900.3 704.802 891.698 700.033 886.688C685.108 871.048 655.145 875.718 637.643 876.627C602.712 878.439 568.331 887.054 533.445 889.147C514.405 890.292 484.586 893.17 470.604 871.787C457.454 851.686 469.364 820.026 477.223 800.658C492.668 762.575 513.418 728.646 532.017 693.245C539.662 678.678 548.042 663.437 552.995 646.803C557.398 631.98 549.797 621.253 542.3 610.493C513.046 568.524 477.803 534.046 446.397 494.772Z" stroke="#5ACEF2" stroke-width="2.000000"/>
	<path id="Shape" d="M474.686 503.933C460.957 481.954 437.316 445.003 447.933 414.016C459.58 379.966 500.18 379.039 523.649 376.295C551.581 373.029 584.383 368.568 608.288 347.307C615.848 340.586 622.289 331.689 625.018 319.971C627.941 307.43 624.746 296.457 624.33 283.903C623.458 257.566 635.378 236.423 651.152 221.903C673.447 201.373 701.324 191.667 727.656 184.9C757.489 177.268 787.817 173.505 818.206 173.665C847.248 173.796 875.982 172.947 905.054 171.967C943.073 170.661 981.627 172.771 1018.51 186.089C1054.84 199.218 1087.87 223.823 1113.81 260.016C1139.12 295.333 1156.2 338.502 1171.16 382.474C1179.65 407.432 1193.98 444.729 1214.23 457.335C1223.23 462.946 1232.06 462.561 1222.49 477.153C1210.44 495.527 1194.19 510.269 1180.23 525.985C1160.09 548.663 1139.45 571.786 1122.54 598.749C1111.75 615.967 1106.94 632.675 1107.68 654.968C1108.25 671.951 1110.86 688.757 1109.54 705.805C1106.46 745.819 1082.56 773.259 1061.44 798.812C1047.85 815.246 1035.44 827.78 1028.44 851.158C1020.17 878.787 1016.69 908.847 1011.16 937.534C1005.09 969.037 998.076 1001.81 984.818 1029.55C973.017 1054.26 958.664 1065.34 937.183 1058.68C903.677 1048.31 870.652 1022.75 840.906 999.116C810.631 975.066 780.875 948.024 755.787 914.967C742.242 897.116 732.997 876.155 720.968 856.978C705.838 832.901 671.608 842.02 651.266 844.058C617.498 847.441 511.243 872.758 521.048 790.758C525.14 756.531 541.256 724.944 553.043 694.741C557.927 682.206 564.997 667.163 566.102 652.8C567.306 637.156 556.496 622.296 549.495 611.179C526.21 574.248 498.139 541.465 474.686 503.933Z" stroke="#FF8062" stroke-width="2.000000"/>
	<path id="Shape" d="M507.432 513.085C497.527 489.676 487.801 458.398 500.578 433.63C514.999 405.679 546.799 399.163 570.164 395.601C594.238 391.935 622.976 388.85 642.652 367.657C648.912 360.906 654.073 351.802 655.033 340.902C655.959 330.445 653.344 319.989 654.211 309.343C656.153 285.437 667.142 265.74 681.311 251.454C723.223 209.191 785.604 199.793 836.173 198.689C861.484 198.14 887.534 201.022 913.009 203.087C946.067 205.766 979.173 211.518 1010.7 225.379C1077.73 254.839 1122.66 320.178 1154.04 401.483C1163.91 427.075 1171.47 454.765 1186.95 475.331C1194.93 485.951 1193.18 493.577 1185.03 503.262C1172.27 518.398 1156.72 529.965 1142.56 542.598C1122.43 560.563 1101.87 578.796 1084.07 600.317C1071.79 615.152 1063.08 629.444 1060.44 651.69C1058.55 667.551 1058.99 683.713 1057.86 699.672C1055.7 729.989 1048.3 760.077 1035.21 785.224C1024.81 805.157 1012.43 823.272 999.637 840.545C983.002 863.032 968.932 885.879 956.298 912.569C939.549 947.899 916.015 1013.07 876.564 995.821C833.053 976.791 792.27 928.437 764.353 881.586C754.978 865.855 747.282 846.563 734.638 834.964C715.71 817.626 696.505 818.233 673.991 818.305C640.285 818.403 566.94 828.056 566.148 761.449C565.836 735.06 574.492 710.108 578.637 684.726C583.313 656.297 573.943 637.123 561.79 614.315C543.995 580.849 522.7 549.231 507.432 513.085Z" stroke="#F1B170" stroke-width="2.000000"/>
	<path id="Shape" d="M547.993 453.504C563.849 427.871 591.895 418.238 615.422 412.498C634.356 407.855 657.189 406.111 671.495 386.428C682.01 371.956 677.342 350.895 681.37 332.779C686.37 310.32 697.846 291.942 711.948 278.13C751.357 239.527 806.151 227.681 853.557 225.16C902.791 222.548 957.04 234.767 1003.37 258.271C1061.14 287.586 1104.42 343.097 1134.68 413.393C1140.27 426.369 1145.34 439.685 1150.7 452.818C1154.3 461.628 1159.65 470.15 1162.49 479.417C1167.21 494.869 1161.64 507.499 1152.71 517.57C1139.87 532.067 1124.09 542.386 1109.45 553.266C1089.43 568.156 1068.96 582.778 1050.33 600.248C1037.81 612.002 1024.71 624.666 1020.23 645.061C1017.18 658.971 1016.54 673.704 1016.65 688.111C1016.89 719 1015.66 743.98 1004.73 772.271C986.741 818.717 959.081 860.48 929.861 895.23C906.928 922.502 870.642 964.866 837.229 946.633C807.251 930.306 789.715 891.227 769.963 859.631C760.36 844.271 749.573 830.244 736.898 819.318C720.917 805.544 705.874 799.765 686.94 797.512C655.073 793.718 607.023 792.731 597.172 742.315C593.535 723.709 595.612 704.438 593.704 685.59C591.211 660.669 583.922 639.301 575.043 617.299C557.442 573.681 517.974 502.007 547.993 453.504Z" stroke="#5BE7C3" stroke-width="2.000000"/>
	<path id="Shape" d="M594.617 468.621C609.28 448.073 629.904 436.585 649.865 428.001C664.162 421.849 686.861 420.038 695.626 401.124C702.064 387.205 702.955 368.003 708.779 353.09C716.781 332.587 728.903 315.7 743.125 302.48C780.175 268.032 828.432 254.721 872.439 250.909C968.061 242.639 1065.36 308.508 1116.52 416.88C1131.78 449.184 1151.47 483.567 1126.82 516.57C1099.9 552.574 1059.35 569.442 1027.22 595.025C1014.95 604.792 999.302 616.535 992.454 634.22C988.334 644.85 988.052 658.188 987.864 669.891C987.368 699.697 985.491 726.502 976.405 754.314C962.371 797.294 939.993 836.947 914.635 869.427C892.519 897.75 860.981 931.034 828.863 910.616C804.237 894.925 788.618 861.621 769.484 837.071C748.191 809.729 721.856 791.306 692.937 782.303C664.805 773.568 633.95 767.678 619.124 730.569C614.038 717.839 608.725 701.357 606.819 687.268C603.741 664.038 599.235 641.178 593.344 618.915C580.811 571.188 564.346 511.039 594.617 468.621Z" stroke="#FF8062" stroke-width="2.000000"/>
	<path id="Shape" d="M634.248 482.82C646.821 465.1 662.714 452.51 678.786 441.104C690.61 432.711 702.821 425.632 711.652 411.873C719.834 399.133 726.054 384.341 733.953 371.268C744.374 353.943 756.842 338.946 770.879 326.852C806.065 296.595 848.868 282.443 889.817 277.534C909.64 275.148 931.144 273.906 950.833 280.41C969.848 286.686 988.65 296.608 1006.13 308.177C1043.3 332.748 1075.52 368.732 1098.87 414.226C1114.88 445.431 1123.54 475.774 1102.8 507.43C1079.43 543.113 1042.77 562.801 1012.56 585.96C991.842 601.844 968.619 617.414 964.749 651.168C961.666 678.027 959.164 703.52 951.19 728.907C939.322 766.355 921.873 800.277 899.878 828.661C879.762 854.52 854.314 876.463 825.541 862.651C802.744 851.689 785.057 827.132 765.14 809.575C742.943 789.965 718.556 779.153 692.875 770.46C669.796 762.616 648.065 750.563 633.148 724.972C630.095 719.743 626.889 714.05 624.535 708.2C621.531 700.735 621.764 693.335 621.175 684.969C619.638 662.889 616.373 641.063 613.751 619.25C607.953 571.057 607.309 520.804 634.248 482.82Z" stroke="#F1B170" stroke-width="2.000000"/>
	<path id="Shape" d="M667.953 490.597C677.727 475.335 689.397 462.765 700.151 448.781C708.81 437.507 716.993 427.031 726.949 417.741C750.567 395.743 769.762 367.276 794.861 347.688C828.366 321.5 866.746 307.024 904.828 301.236C923.424 298.408 942.633 297.419 961.446 300.615C977.604 303.358 993.079 312.988 1007.43 322.842C1035.57 342.142 1062.89 369.574 1081.16 404.28C1121.43 480.796 1042.02 536.426 1001.27 569.004C982.523 583.99 953.882 601.347 946.205 631.031C940.716 652.237 937.373 673.803 930.304 694.354C911.317 749.545 872.774 814.459 821.412 805.817C799.433 802.125 779.402 787.125 758.884 777.056C737.758 766.686 715.953 760.905 693.994 754.561C673.472 748.635 657.115 740.203 643.86 717.596C637.524 706.8 638.084 693.876 637.519 680.631C636.598 658.875 636.028 636.995 636.251 615.312C636.747 569.534 645.093 526.271 667.953 490.597Z" stroke="#5BE7C3" stroke-width="2.000000"/>
	<path id="Shape" d="M740.7 424.791C793.707 377.588 851.132 337.839 914.463 326.412C943.824 321.114 975.989 318.507 1003.69 335.833C1024.78 349.011 1049.27 368.709 1060.88 396.41C1089.27 464.167 1026.12 518.106 990.141 549.453C970.772 566.328 946.116 582.772 931.516 607.417C923.046 621.705 918.722 640.605 911.884 656.298C891.16 703.854 857.048 742.211 814.554 749.071C794.907 752.24 775.115 748.32 755.617 745.204C735.657 742.016 715.449 740.284 695.613 735.835C679.779 732.281 661.119 726.264 655.287 703.913C647.933 675.748 653.373 637.666 656.74 609.448C664.992 540.352 695.638 464.918 740.7 424.791Z" stroke="#5ACEF2" stroke-width="2.000000"/>
	<path id="Shape" d="M757.19 431.238C779.909 410.674 806.282 396.479 831.602 382.453C860.303 366.557 890.29 354.219 920.917 348.099C959.052 340.474 1020.81 333.602 1040.74 390.914C1060.51 447.801 1010.54 498.149 980.991 526.841C962.045 545.221 941.769 562.091 923.668 582.185C913.853 593.078 906.292 605.665 897.985 618.442C875.029 653.842 842.301 681.867 808.943 696.828C776.613 711.331 736.616 717.752 702.489 712.959C687.763 710.899 677.238 703.949 672.785 684.188C666.614 656.719 671.856 625.183 676.831 598.348C688.866 533.386 714.35 470.02 757.19 431.238Z" stroke="#F1B170" stroke-width="2.000000"/>
	<path id="Shape" d="M772.151 437.085C814.314 398.603 868.605 377.219 918.506 366.345C945.03 360.569 1002.51 344.909 1016.03 389.728C1029.55 434.546 990.465 478.713 967.97 503.027C940.669 532.491 911.233 560.94 881.833 587.376C856.289 610.362 829.031 633.861 801.363 651.612C785.759 661.681 769.503 669.903 752.79 676.18C740.413 680.79 724.676 687.666 711.701 684.234C678.973 675.567 691.077 608.2 696.795 580.852C708.75 523.655 734.537 471.414 772.151 437.085Z" stroke="#FF8062" stroke-width="2.000000"/>
	<path id="Shape" d="M910.799 383.818C929.393 379.514 981.519 363.995 991.913 397.037C1001.98 429.074 969.953 467.067 954.956 485.067C908.487 540.845 851.075 582.201 796.672 623.172C779.691 635.961 749.065 663.713 728 650.911C705.13 636.986 716.003 586.153 721.438 563.724C747.669 455.558 830.778 402.36 910.799 383.818Z" stroke="#5ACEF2" stroke-width="2.000000"/>
	<path id="Shape" d="M898.473 402.502C913.415 398.817 951.362 387.344 962.679 409.572C973.151 430.135 948.159 459.93 938.809 471.77C917.993 498.134 893.324 519.854 868.952 540.729C846.418 560.044 823.641 579.842 799.93 596.177C787.441 604.776 764.018 623.124 749.826 609.846C734.547 595.563 743.242 560.593 748.307 542.905C771.119 463.249 837.47 417.563 898.473 402.502Z" stroke="#5ACEF2" stroke-width="2.000000"/>
	<path id="Shape" d="M882.948 422.61C894.001 419.596 917.89 411.778 927.215 425.67C935.799 438.464 921.964 457.219 915.824 465.882C888.611 504.276 848.76 538.572 812.248 559.635C803.067 564.931 786.565 575.325 777.121 564.637C767.434 553.66 773.922 531.577 777.916 519.633C795.303 467.614 841.87 433.835 882.948 422.61Z" stroke="#5BE7C3" stroke-width="2.000000"/>
	<path id="Shape" d="M865.941 446.259C880.869 441.897 898.813 445.665 885.803 468.15C872.879 490.463 848.899 510.842 828.574 519.876C813.067 526.767 800.913 519.969 809.326 497.781C819.124 471.951 844.73 452.463 865.941 446.259Z" stroke="#F1B170" stroke-width="2.000000"/>
	<path id="Shape" d="M3.79297 520.62C12.1301 477.914 54.1025 474.349 79.282 455C99.291 439.629 110.646 412.399 121.467 386.272C131.19 362.817 139.923 338.656 150.165 315.586C156.795 300.671 168.18 271.385 182.558 270.855C196.323 270.346 208.945 293.168 216.94 306.659C227.365 324.245 236.608 342.992 246.731 360.858C263.792 390.994 284.261 413.3 307.698 434.411C334.371 458.433 361.483 481.634 389.036 504.014C409.322 520.542 429.747 536.945 449.246 555.104C461.477 566.5 488.472 587.878 488.596 608.885C488.656 618.909 481.456 630.01 476.603 638.022C468.389 651.585 459.028 663.985 449.637 676.118C432.146 698.718 413.914 720.293 395.879 742.129C372.47 770.469 350.111 798.346 329.533 830.519C308.258 863.822 287.932 898.221 267.191 932.151C253.144 955.137 239.112 980.949 218.85 995.054C193.473 1012.69 172.643 994.094 146.978 993.879C124.901 993.689 126.529 926.196 123.723 907.429C120.908 888.433 114.704 870.75 112.299 851.708C109.301 827.939 109.261 803.622 108.524 779.598C107.628 750.213 107.272 722.239 83.468 711.034C69.9207 704.667 55.2654 703.328 41.2432 699.515C32.1589 697.04 15.0247 692.809 14.8267 676.686C14.1985 625.654 -6.35986 572.618 3.79297 520.62Z" stroke="#FF8062" stroke-width="2.000000"/>
	<path id="Shape" d="M22.623 525.922C33.6685 488.187 68.2122 483.295 91.4724 463.473C110.674 447.124 119.222 420.369 128.821 394.085C136.521 373.001 143.989 351.714 152.73 331.303C159.172 316.261 169.008 290.867 182.403 287.754C194.444 284.955 207.358 307.374 214.117 318.779C223.978 335.43 232.412 353.512 241.123 371.216C256.43 402.312 272.104 430.277 294.507 453.121C317.009 476.062 341.627 493.216 366.508 511.07C385.972 525.039 405.338 539.414 423.831 555.541C437.607 567.548 457.413 582.917 463.717 604.328C468.707 621.266 443.4 649.375 435.937 659.295C420.575 679.693 404.297 698.842 387.989 717.873C368.108 741.063 347.593 761.343 330.037 787.796C298.635 835.093 272.386 893.99 231.981 929.142C207.61 950.344 180.49 955.766 153.384 952.594C142.651 951.338 140.074 931.346 138.721 919.685C136.472 900.314 136.189 880.61 134.46 861.16C132.839 842.954 129.242 825.656 126.343 807.802C123.409 789.712 122.587 771.179 120.426 752.965C119.088 741.658 117.765 728.5 111.913 719.41C105.858 709.999 95.8677 706.055 87.1365 703.06C70.7393 697.488 27.3159 697.795 25.6804 667.607C23.3665 624.831 9.69458 570.079 22.623 525.922Z" stroke="#5BE7C3" stroke-width="2.000000"/>
	<path id="Shape" d="M46.1641 525.351C59.1238 495.771 86.7634 489.39 106.506 470.116C122.926 454.088 129.128 428.597 137.279 404.908C143.967 385.477 150.689 365.961 158.795 347.471C164.943 333.449 172.866 314.436 185.072 309.544C195.508 305.364 207.298 324.089 213.083 333.41C222.934 349.294 230.966 367.092 238.943 384.654C251.992 413.392 264 444.089 282.572 467.464C300.618 490.148 322.056 503.537 343.895 518.591C360.622 530.125 377.246 542.104 393.007 555.859C405.109 566.414 420.106 578.921 426.412 596.484C431.866 611.63 417.865 629.558 410.87 640.243C399.318 657.878 386.497 674.056 373.855 690.299C360.211 707.823 345.1 723.988 331.897 741.942C304.133 779.726 281.952 821.559 247.733 850.505C225.572 869.257 195.751 886.291 169.554 883.227C150.714 881.02 151.954 826.013 150.144 808.438C147.169 779.7 141.423 749.505 132.296 723.034C124.458 700.351 105.831 693.356 88.697 688.268C77.9634 685.074 66.7141 683.35 56.3325 678.412C44.3149 672.691 41.2808 666.16 39.6497 649.701C35.7578 610.435 30.3091 561.528 46.1641 525.351Z" stroke="#5ACEF2" stroke-width="2.000000"/>
	<path id="Shape" d="M65.8933 530.124C79.0476 504.97 102.468 498.348 119.126 478.533C132.126 463.074 137.232 437.868 144.224 417.424C152.768 392.428 164.741 346.26 186.296 336.854C206.348 328.109 227.317 383.971 234.577 400.629C246.069 426.994 255.68 455.908 269.618 480.256C281.621 501.217 297.703 512.805 314.772 525.257C336.536 541.162 369.578 560.02 381.214 591.017C389.887 614.114 361.683 648.451 352.052 664.454C341.979 681.17 334.392 700.985 323.997 717.112C307.593 742.561 281.011 763.05 259.064 778.687C237.728 793.896 210.02 810.731 185.815 809.729C169.907 809.074 166.88 776.662 163.486 760.83C158.623 738.323 152.158 718.154 138.269 702.846C124.132 687.262 107.47 679.919 89.9541 673.493C80.9629 670.218 70.7065 667.663 62.6631 661.047C53.7761 653.849 53.5728 644.056 52.6794 631.295C50.3623 598.098 50.8833 558.841 65.8933 530.124Z" stroke="#F1B170" stroke-width="2.000000"/>
	<path id="Shape" d="M88.3938 530.774C100.67 512.347 119.885 506.187 131.636 487.349C140.944 472.436 145.682 451.499 151.914 434.18C159.536 412.957 170.313 375.881 189.266 368.516C207.764 361.345 224.125 402.182 231.217 418.341C241.604 442.035 250.011 467.149 260.492 490.778C268.702 509.316 278.742 521.264 292.111 533.211C307.805 547.246 329.7 562.792 338.083 586.009C344.127 602.82 329.497 629.681 324.186 644.491C320.625 654.438 317.365 664.541 315.575 675.322C314.18 683.717 314.042 691.487 310 698.696C299.827 716.83 277.521 719.196 262.386 725.173C242.286 733.106 220.959 742.121 199.924 743.842C186.996 744.917 180.398 729.202 173.019 718.147C164.299 705.078 151.954 695.678 141.172 685.816C126.942 672.78 111.457 664.671 95.437 656.367C88.2109 652.619 79.7239 648.943 74.125 641.492C68.2788 633.769 68.5112 622.511 68.5559 612.16C68.6843 583.48 73.655 552.896 88.3938 530.774Z" stroke="#FF8062" stroke-width="2.000000"/>
	<path id="Shape" d="M109.193 530.997C119.501 517.923 133.19 510.563 141.464 494.855C149.172 480.213 154.544 463.565 160.911 447.909C167.649 431.359 177.66 403.696 193.201 399.192C209.95 394.342 222.852 422.247 229.997 437.712C239.022 457.257 245.879 478.285 253.949 498.503C260.029 513.572 267.784 527.354 276.957 539.39C286.576 552.077 299.622 564.229 304.489 581.675C308.791 597.127 300.741 615.822 299.32 631.491C297.8 648.231 300.464 665.814 292.037 680.188C274.659 709.833 231.046 704.335 206.113 704.969C181.512 705.623 161.733 687.483 141.825 670.227C128.675 658.833 114.981 649.186 101.499 638.57C87.7554 627.739 82.9827 616.333 85.2305 595.134C87.7852 571.046 95.7463 548.024 109.193 530.997Z" stroke="#5ACEF2" stroke-width="2.000000"/>
	<path id="Shape" d="M148.741 501.533C162.543 479.944 172.892 435.235 196.136 429.321C222.526 422.609 238.324 481.848 247.499 504.706C257.679 530.057 275.81 550.678 283.35 577.514C287.313 591.599 283.91 604.743 281.8 618.821C279.486 634.28 277.747 650.086 269.761 662.529C254.043 687.017 223.343 686.847 201.233 687.521C178.346 688.22 158.099 671.44 139.864 654.692C120.524 636.956 92.9846 617.133 100.723 581.348C108.277 546.452 131.873 527.905 148.741 501.533Z" stroke="#5ACEF2" stroke-width="2.000000"/>
	<path id="Shape" d="M154.293 507.73C166.409 491.823 179.443 459.8 197.916 457.518C219.627 454.825 232.785 489.02 241.328 509.986C249.736 530.589 261.852 552.342 266.507 574.955C271.363 598.509 258.434 630.233 246.104 646.901C232.351 665.487 209.852 672.354 190.545 671.613C170.331 670.859 151.784 655.498 136.474 639.565C120.107 622.533 103.476 600.747 113.376 571.885C121.889 547.023 139.778 526.811 154.293 507.73Z" stroke="#FF8062" stroke-width="2.000000"/>
	<path id="Shape" d="M160.341 513.429C170.37 501.383 185.17 480.899 199.64 480.398C215.558 479.844 229.049 497.037 235.377 514.66C241.616 532.042 248.189 553.835 249.123 572.905C251.151 614.432 209.864 660.949 178.861 657.164C149.467 653.574 108.904 608.405 125.117 567.204C133.249 546.525 147.344 529.033 160.341 513.429Z" stroke="#5ACEF2" stroke-width="2.000000"/>
	<path id="Shape" d="M199.668 498.659C228.625 497.616 235.893 540.36 232.119 571.335C228.285 602.95 194.901 648.71 168.281 642.527C142.301 636.493 122.681 596.877 135.976 564.924C147.194 537.981 174.442 499.571 199.668 498.659Z" stroke="#5BE7C3" stroke-width="2.000000"/>
	<path id="Shape" d="M198.345 508.979C223.532 507.97 223.057 544.057 217.345 566.518C211.406 589.838 185.249 629.669 163.194 623.38C141.749 617.241 138.339 582.188 147.44 560.567C156.938 538.009 177.206 509.832 198.345 508.979Z" stroke="#FF8062" stroke-width="2.000000"/>
	<path id="Shape" d="M194.302 520.879C212.534 520.097 208.99 548.72 204.279 562.535C198.68 578.973 179.912 607.537 164.162 602.908C148.656 598.351 152.254 571.234 157.426 557.971C163.696 541.875 179.386 521.53 194.302 520.879Z" stroke="#5ACEF2" stroke-width="2.000000"/>
	<path id="Shape" d="M886.089 1563.73C823.222 1603.32 759.429 1641.85 693.372 1671.34C657.956 1687.15 612.063 1709.94 574.062 1697.55C560.168 1693.03 547.497 1679.33 535.04 1670.44C517.862 1658.17 500.431 1646.51 483.031 1634.82C448.125 1611.4 413.11 1588.21 378.803 1563.28C362.284 1551.28 346.256 1536.15 329.058 1525.91C319.008 1519.92 306.981 1522.72 296.242 1523.1C271.367 1523.98 246.506 1525.66 221.646 1527.08C191.238 1528.82 160.76 1530.67 130.317 1529.98C116.587 1529.67 82.959 1532.88 75.4001 1517.28C71.3335 1508.88 80.9182 1493.73 85.3611 1486.73C93.5193 1473.84 102.896 1462.24 112.149 1450.75C133.547 1424.17 156.272 1398.87 175.293 1369.18C185.066 1353.92 197.87 1335.28 191.49 1314.45C185.051 1293.41 173.896 1275.19 167.09 1254.22C159.254 1230.09 156.005 1204.98 152.305 1179.4C149.566 1160.49 143.186 1143.73 137.188 1126.3C130.56 1107.03 123.695 1087.59 119.093 1067.27C116.052 1053.85 111.143 1029.7 121.783 1021.2C136.9 1009.11 165.248 1018.9 182.48 1022.46C206.296 1027.37 229.938 1033.63 253.689 1039.02C270.931 1042.94 288.233 1047.24 305.762 1047.69C334.021 1048.43 362.374 1045.88 390.558 1043.5C442.746 1039.1 494.559 1033.13 546.923 1033.13C592.799 1033.13 698.815 1103.13 723.631 1115.46C773.164 1140.07 824.014 1163.39 870.887 1196.13C883.568 1205 903.084 1216.81 909.756 1235.05C913.872 1246.29 911.98 1252.79 921.688 1260.04C934.933 1269.92 951.903 1273.8 966.565 1278.22C990.177 1285.34 1013.97 1291.37 1037.69 1297.82C1085.67 1310.83 1133.32 1325.54 1181.1 1339.69C1195.55 1343.97 1213.02 1344.92 1226.79 1352.46C1235.67 1357.3 1234.75 1363.39 1227.88 1370.75C1215.82 1383.65 1198.93 1390.82 1184.7 1398.18C1163.84 1408.97 1142.64 1418.59 1121.43 1428.07C1100.22 1437.56 1078.9 1446.75 1057.68 1456.25C1043.66 1462.51 1027.68 1467.6 1015.08 1477.68C974.728 1509.97 929.108 1536.63 886.089 1563.73Z" stroke="#FF8062" stroke-width="2.000000"/>
	<path id="Shape" d="M846.125 1553.87C787.664 1586.08 727.88 1616.27 666.282 1636.4C630.116 1648.22 587.444 1661.26 550.49 1647.71C537.306 1642.88 527.457 1632.01 516.156 1622.42C503.275 1611.48 489.898 1601.45 476.521 1591.58C448.985 1571.26 421.158 1551.64 393.04 1532.71C378.148 1522.64 361.754 1509.16 344.929 1505.66C331.552 1502.88 316.357 1506.91 302.921 1508.08C278.724 1510.18 254.532 1512.35 230.325 1514.2C202.392 1516.33 174.38 1518.29 146.388 1517.95C130.787 1517.76 104.004 1520.89 92.9705 1507.59C83.344 1495.99 118.391 1454.02 124.554 1446.04C143.802 1421.15 164.046 1397.44 181.96 1370.81C192.548 1355.12 205.439 1336.02 209.903 1315.21C213.703 1297.48 206.37 1277.27 202.04 1260.88C196.625 1240.34 192.256 1219.06 185.964 1198.96C180.36 1181.04 171.442 1165.09 163.61 1148.81C154.994 1130.9 146.269 1112.69 139.873 1093.15C135.954 1081.13 129.469 1060.99 137.257 1049.53C146.254 1036.32 173.989 1044.95 185.389 1046.84C208.516 1050.71 231.464 1056.47 254.433 1061.62C292.581 1070.18 328.951 1077.66 367.798 1075.87C418.387 1073.53 468.926 1068.02 519.505 1064.97C538.183 1063.83 557.158 1061.54 575.851 1062.78C586.567 1063.49 594.727 1067.81 600.959 1077.55C609.471 1090.84 629.075 1098.2 642.71 1105.83C663.969 1117.72 685.496 1128.77 706.963 1139.97C754.088 1164.57 802.121 1188.27 846.814 1220.08C860.954 1230.15 877.145 1241.36 887.603 1257.99C893.439 1267.26 891.968 1276.19 895.53 1286.04C900.247 1299 915.754 1304.84 925.023 1309.08C942.914 1317.27 961.537 1322.76 980.017 1327.9C1021.83 1339.53 1063.75 1347.18 1106.24 1352.81C1116.2 1354.12 1155.41 1358.65 1134.82 1380.5C1112.06 1404.65 1079.2 1416.48 1052.41 1430.09C1028.28 1442.32 1004.13 1453.7 981.875 1470.57C939.188 1502.94 891.804 1528.72 846.125 1553.87Z" stroke="#5BE7C3" stroke-width="2.000000"/>
	<path id="Shape" d="M795.096 1534.62C742.657 1559.27 688.904 1581.25 633.906 1593.56C599.357 1601.29 561.267 1607.23 526.951 1594.39C503.516 1585.62 485.389 1561.92 464.806 1545.62C444.223 1529.32 422.807 1514.02 400.752 1501.26C387.063 1493.35 372.338 1485.37 357.106 1486.42C320.073 1488.95 283.083 1494.99 246.01 1497.92C221.484 1499.88 196.909 1501.5 172.309 1501.01C157.474 1500.73 137.095 1501.9 123.962 1491.61C109.445 1480.22 186.741 1383.03 194.047 1372.09C212.363 1344.65 234.543 1308.25 231.002 1269.24C227.614 1231.94 212.934 1204.1 196.328 1174.88C186.905 1158.26 156.686 1113.85 167.885 1092.23C174.283 1079.88 195.371 1084.15 205.39 1085C225.134 1086.66 244.77 1090.22 264.41 1093.32C293.047 1097.8 322.473 1104.73 351.234 1106.77C371.261 1108.18 391.407 1106.29 411.469 1106.25C440.236 1106.2 469.002 1106.48 497.768 1106.82C521.922 1107.11 546.279 1106.82 570.348 1109.88C585.311 1111.76 596.669 1115.99 607.402 1127.93C616.741 1138.31 630.831 1144.39 642.735 1151C662.395 1161.9 682.313 1172 702.166 1182.27C743.733 1203.77 785.777 1224.82 825.563 1251.69C843.726 1263.95 874.262 1281.11 878.523 1310.84C880.06 1321.55 881.191 1326.18 889.126 1332.28C900.39 1340.93 913.88 1344.82 926.517 1348.21C955.978 1356.12 986.292 1354.94 1015.7 1362.75C1027.68 1365.97 1043.32 1372.92 1029.64 1388.83C1013.69 1407.43 990.463 1417.66 971.348 1429.16C961.806 1434.89 951.976 1440.26 942.914 1447.26C935.956 1452.66 929.999 1459.57 922.882 1464.59C882.758 1493.06 838.31 1514.3 795.096 1534.62Z" stroke="#5ACEF2" stroke-width="2.000000"/>
	<path id="Shape" d="M730.023 1510.79C686.11 1527.61 641.137 1541.53 595.57 1547.46C564.106 1551.56 530.582 1552.77 500.044 1540.21C480.732 1532.26 467.639 1515.55 451.021 1501.53C425.94 1480.34 398.804 1463.56 368.672 1467.64C334.89 1472.21 300.998 1475.64 266.996 1477.93C246.485 1479.31 225.895 1480.34 205.36 1479.38C192.376 1478.78 175.649 1477.76 164.354 1470.01C149.241 1459.62 206.009 1380.56 213.085 1369.03C230.634 1340.46 243.499 1310.47 251.016 1275.06C257.146 1246.17 244.623 1223.46 231.704 1201.85C223.672 1188.43 197.719 1154.67 205.845 1137.25C210.302 1127.64 224.989 1128.13 232.877 1127.64C247.911 1126.71 263.009 1127.68 278.043 1128.11C300.242 1128.76 323.873 1124.26 345.884 1127.88C394.664 1135.9 443.321 1142.84 492.404 1148.33C519.46 1151.35 546.681 1154.1 573.495 1159.94C583.121 1162.03 593.065 1164.25 602.186 1168.99C608.054 1172.04 611.253 1177.22 616.205 1181.48C639.815 1201.73 670.635 1212.16 697.227 1225.14C732.578 1242.4 768.117 1259.39 802.528 1279.77C820.627 1290.5 845.906 1302.82 858.36 1324.7C862.123 1331.32 860.519 1336.61 862.886 1342.96C865.609 1350.3 873.884 1352.48 879.227 1354.52C891.354 1359.17 942.115 1366.19 918.723 1393.41C907.562 1406.38 893.34 1414.7 880.757 1424.9C876.201 1428.59 871.76 1432.3 867.962 1437.28C861.608 1445.64 855.349 1450.4 846.886 1455.7C809.817 1478.82 769.558 1495.64 730.023 1510.79Z" stroke="#F1B170" stroke-width="2.000000"/>
	<path id="Shape" d="M527.185 1503.65C500.653 1502 472.106 1496.5 449.107 1477.68C435.546 1466.56 424.709 1454.01 408.418 1449.99C396.658 1447.1 383.995 1450.39 372.166 1451.58C355.032 1453.3 337.888 1454.85 320.729 1456.1C299.457 1457.62 278.115 1458.8 256.803 1458.17C241.575 1457.72 220.546 1458.23 207.317 1447.44C191.523 1434.56 231.725 1374.18 237.382 1363.42C251.092 1337.35 260.703 1312.08 264.177 1280.66C265.199 1271.5 268.643 1262.11 268.196 1252.89C267.73 1243.46 263.328 1235.07 259.264 1227.66C253.95 1217.95 235.511 1194.91 240.791 1183.07C243.708 1176.53 254.66 1175.7 260.336 1174.32C270.985 1171.7 281.787 1170.29 292.5 1168.21C310.676 1164.67 328.723 1153.12 346.964 1153.45C396.013 1154.31 445.773 1174.38 493.84 1185.4C522.416 1191.97 551.186 1197.94 579.415 1206.84C588.347 1209.66 597.546 1212.58 606.036 1217.36C611.961 1220.69 615.767 1226.64 621.255 1230.37C642.299 1244.72 666.499 1253.42 689.096 1263.08C718.432 1275.63 747.866 1287.81 776.999 1301.18C795.259 1309.56 818.739 1316.93 834.474 1332.47C845.966 1343.82 838.111 1347.21 832.047 1357.78C828.951 1363.17 829.666 1368.48 828.321 1374.58C826.401 1383.29 820.972 1389.57 815.881 1395.2C808.86 1402.99 799.506 1409.41 793.765 1418.96C791.741 1422.32 791.835 1426.49 790.198 1429.42C785.434 1437.96 772.796 1442.17 765.913 1445.69C692.733 1483.1 606.969 1508.59 527.185 1503.65Z" stroke="#FF8062" stroke-width="2.000000"/>
	<path id="Shape" d="M499.846 1463.06C478.003 1460.89 456.025 1455.86 435.678 1444.81C426.42 1439.8 419.471 1434.21 409.327 1433.91C385.789 1433.22 362.177 1435.64 338.644 1436.23C321.803 1436.65 304.878 1436.8 288.077 1435.01C276.843 1433.82 261.652 1432.39 252.449 1423.31C239.075 1410.07 263.217 1365.08 268.131 1352.65C276.274 1332.03 284.352 1309.11 281.123 1285.26C280.132 1277.96 278.379 1271.52 278.151 1264.08C277.933 1257.69 278.542 1251.78 276.823 1245.67C274.698 1238.1 265.248 1226.34 268.497 1219.37C270.711 1214.6 277.279 1214.38 281.648 1212.86C288.734 1210.38 295.652 1207.14 302.333 1203.16C309.366 1198.95 315.354 1192.44 322.641 1188.96C334.469 1183.32 347.709 1182.79 360.141 1182.81C409.748 1182.92 459.983 1195.83 508.331 1209.32C533.508 1216.35 558.824 1223.84 583.293 1234.5C590.723 1237.74 599.143 1240.99 605.677 1246.97C609.753 1250.69 612.517 1255.36 617.148 1258.16C656.709 1282.06 702.447 1290.94 744.446 1308.21C755.377 1312.7 815.96 1335.41 784.284 1356.77C765.041 1369.75 744.708 1375.66 727.149 1393.41C721.8 1398.81 718.233 1403.28 716.143 1411.52C714.766 1417 718.08 1414.22 713.453 1419.95C707.841 1426.84 695.027 1429.62 688.108 1432.36C628.714 1455.88 562.628 1469.27 499.846 1463.06Z" stroke="#F1B170" stroke-width="2.000000"/>
	<path id="Shape" d="M412.541 1421.55C394.735 1417.26 376.203 1418.28 358.178 1417.19C340.665 1416.15 309.527 1418.32 296.807 1400.56C287.583 1387.68 297.592 1360.32 301.054 1345.91C305.464 1327.56 309.319 1308.61 302.077 1290.78C297.835 1280.35 292.024 1270.41 287.474 1260.07C285.299 1255.13 280.819 1247.57 282.686 1242.89C285.775 1235.17 300.229 1231.92 307.242 1228.28C329.658 1216.65 353.395 1213.68 377.36 1213.77C421.625 1213.92 466.119 1221.9 509.54 1232.73C529.517 1237.72 549.772 1243.03 569.038 1251.7C579.941 1256.59 587.982 1266.05 598.393 1271.65C631.915 1289.71 667.93 1299.36 702.027 1315.87C711.897 1320.65 748.761 1336.56 730.19 1355.33C712.21 1373.5 685.984 1371.34 667.289 1388.43C665.173 1390.39 662.555 1392.73 661.329 1395.9C660.604 1397.79 661.88 1401.39 661.329 1402.46C655.587 1414.16 635.178 1416.02 626.352 1418.45C556.815 1437.65 483.175 1438.56 412.541 1421.55Z" stroke="#5ACEF2" stroke-width="2.000000"/>
	<path id="Shape" d="M472.892 1414.22C453.063 1414.45 431.279 1416.11 411.877 1409.49C399.959 1405.41 388.449 1401.84 376.163 1399.27C362.944 1396.5 341.661 1394.49 333.612 1379.49C327.598 1368.28 331.719 1345.24 331.938 1331.61C332.171 1316.66 329.847 1305.58 321.848 1294.88C316.817 1288.14 293.741 1263.69 296.408 1256.64C298.945 1249.92 315.025 1248.9 321.977 1247.15C343.95 1241.61 366.217 1239.69 388.568 1239.99C423.184 1240.45 457.93 1245.1 492.005 1253.11C506.093 1256.43 520.653 1259.87 534.11 1266.52C543.173 1271 550.73 1278.94 559.733 1283.57C585.516 1296.85 612.778 1305.87 638.65 1319.4C646.952 1323.75 674.006 1335.32 667.521 1353.16C662.113 1368.06 643.72 1372.59 634.682 1382.57C619.308 1399.6 600.905 1402.22 581.3 1405.76C545.626 1412.22 509.167 1413.82 472.892 1414.22Z" stroke="#5ACEF2" stroke-width="2.000000"/>
	<path id="Shape" d="M472.856 1403.44C454.324 1403.5 434.774 1403.83 416.589 1398.33C407.454 1395.58 399.517 1389.13 390.872 1384.53C381.969 1379.8 369.684 1374.52 365.837 1363.68C362.221 1353.48 363.572 1338.61 360.396 1326.33C357.573 1315.42 351.662 1308.69 345.297 1301.32C341.242 1296.61 320.416 1276.22 322.824 1271.71C325.406 1266.89 337.913 1267.28 344.422 1266.62C362.354 1264.75 380.349 1264.15 398.33 1264.83C422.87 1265.83 447.598 1268.6 471.713 1274.87C488.82 1279.31 501.723 1289.9 517.673 1297.66C538.336 1307.74 559.741 1315.71 580.206 1326.74C590.404 1332.23 605.498 1339.3 610.721 1353.48C612.729 1358.92 614.677 1372.74 612.442 1378.18C609.756 1384.71 599.761 1387.48 595.043 1389.16C583.223 1393.35 570.854 1395.39 558.826 1397.2C530.527 1401.48 501.57 1403.35 472.856 1403.44Z" stroke="#FF8062" stroke-width="2.000000"/>
	<path id="Shape" d="M421.486 1385.91C407.147 1381.65 392.866 1369.01 387.019 1351.78C383.989 1342.87 383.338 1332.27 378.813 1323.64C375.462 1317.26 371.199 1311.5 366.995 1306.13C364.626 1303.1 349.453 1286.48 352.379 1283.52C355.468 1280.38 363.047 1281.41 368.223 1281.33C380.624 1281.14 393.073 1281.77 405.434 1283.01C419.646 1284.44 434.193 1286.29 447.975 1291.31C459.092 1295.38 469.223 1303.94 480.049 1309.03C508.511 1322.51 538.503 1333.06 565.223 1353.01C570.908 1357.25 582.148 1363.6 575.319 1373.18C566.822 1385.12 543.245 1385.16 532.315 1386.77C496.94 1392.02 456.97 1396.48 421.486 1385.91Z" stroke="#F1B170" stroke-width="2.000000"/>
	<path id="Shape" d="M423.054 1375.14C410.247 1371.3 398.822 1363.32 393.244 1347.86C389.253 1336.85 388.175 1324.55 382.722 1313.97C380.791 1310.23 373.697 1299.75 377.194 1297.46C384.678 1292.54 401.381 1298.21 411.764 1300.79C427.39 1304.7 440.436 1315.65 455.294 1322.14C478.084 1332.1 506.961 1337.41 527.731 1354.38C547.747 1370.79 508.827 1376.23 501.478 1377.31C476.288 1380.98 448.344 1382.71 423.054 1375.14Z" stroke="#5BE7C3" stroke-width="2.000000"/>
</svg>
